<svg id="Mit_UT" data-name="Mit UT" xmlns="http://www.w3.org/2000/svg" viewBox="0 0 2560 1440"><defs><style>.cls-1{fill:#50bb00;}</style></defs><title>YouTube Titel_Vektor</title><g id="QUER_-_mit_Untertitel" data-name="QUER - mit Untertitel"><polygon class="cls-1" points="359.53 614.65 615.24 614.65 575.18 545.25 319.46 545.25 359.53 614.65"/><polygon class="cls-1" points="321.3 855.86 575.18 855.86 615.24 786.46 361.37 786.46 321.3 855.86"/><polygon class="cls-1" points="644.81 665.86 389.1 665.86 410.05 702.15 390.93 735.25 644.81 735.25 664.84 700.56 644.81 665.86"/><polygon points="526.04 942.96 271.03 942.96 132 702.15 271.03 461.34 526.18 461.34 549.1 501.68 294.32 501.68 178.58 702.15 294.32 902.62 549.1 902.62 526.04 942.96"/><path d="M998.83,978.19v-24l1.13,3.11-27.72-45.16h5.28l25.17,41h-2.64l25.18-41h5l-27.72,45.16,1.14-3.11v24Z"/><path d="M1067.37,978.66a36.38,36.38,0,0,1-13.62-2.5,32.68,32.68,0,0,1-10.94-7.07,32.08,32.08,0,0,1-7.21-10.65,35.7,35.7,0,0,1,0-26.5,32.08,32.08,0,0,1,7.21-10.65,32.83,32.83,0,0,1,10.94-7.07,38.38,38.38,0,0,1,27.25,0,32.42,32.42,0,0,1,18.1,17.63,35.65,35.65,0,0,1,0,26.68,32.42,32.42,0,0,1-18.1,17.63A36.46,36.46,0,0,1,1067.37,978.66Zm0-4.43a30.86,30.86,0,0,0,11.69-2.17,27.67,27.67,0,0,0,9.34-6.13,28.48,28.48,0,0,0,6.17-9.24,31,31,0,0,0,0-23.05,28.69,28.69,0,0,0-6.17-9.19,27.82,27.82,0,0,0-9.34-6.13,32.57,32.57,0,0,0-23.38,0,28.28,28.28,0,0,0-15.6,15.32,31,31,0,0,0,0,23.05,28.15,28.15,0,0,0,15.6,15.37A30.86,30.86,0,0,0,1067.37,974.23Z"/><path d="M1144.21,978.66q-12.26,0-19.33-7.16t-7.07-21.31v-38h4.81V950q0,12.36,5.66,18.29t16,5.94q10.28,0,15.93-5.94T1165.9,950V912.19h4.81v38q0,14.14-7.08,21.31T1144.21,978.66Z"/><path d="M1193.14,978.19v-66h23.67a34.91,34.91,0,0,1,14.24,2.64,20.47,20.47,0,0,1,9.14,7.59,21.63,21.63,0,0,1,3.21,12,21.29,21.29,0,0,1-3.21,11.84,20.74,20.74,0,0,1-9.14,7.63,34.4,34.4,0,0,1-14.24,2.69h-21l2.17-2.26v23.85Zm4.81-23.57-2.17-2.26h21q10.65,0,16.17-4.72t5.51-13.2q0-8.57-5.51-13.24t-16.17-4.67h-21l2.17-2.36Zm41,23.57-17.16-24h5.46l17.16,24Z"/><path d="M1300,978.19l-22.44-66h5.09l21.3,63.08h-2.54l22-63.08H1328l21.78,63.08h-2.45l21.49-63.08h4.72l-22.35,66h-5.09l-21.12-61h1.23l-21.12,61Z"/><path d="M1374.35,978.19l30.36-66h4.81l30.36,66h-5.18l-28.67-63h2.08l-28.57,63Zm11.13-18.57,1.6-4.06h39.51l1.6,4.06Z"/><path d="M1463.55,978.19v-24l1.13,3.11L1437,912.19h5.28l25.17,41h-2.64l25.18-41h5l-27.72,45.16,1.13-3.11v24Z"/><path d="M1543.78,978.19V916.53H1520v-4.34h52.33v4.34h-23.76v61.66Z"/><path d="M1611.29,978.66a36.39,36.39,0,0,1-13.63-2.5,32.63,32.63,0,0,1-10.93-7.07,32.1,32.1,0,0,1-7.22-10.65,35.83,35.83,0,0,1,0-26.5,32.1,32.1,0,0,1,7.22-10.65,32.79,32.79,0,0,1,10.93-7.07,38.38,38.38,0,0,1,27.25,0,32.34,32.34,0,0,1,18.1,17.63,35.65,35.65,0,0,1,0,26.68,32.34,32.34,0,0,1-18.1,17.63A36.38,36.38,0,0,1,1611.29,978.66Zm0-4.43a30.9,30.9,0,0,0,11.69-2.17,27.63,27.63,0,0,0,9.33-6.13,28.5,28.5,0,0,0,6.18-9.24,31.16,31.16,0,0,0,0-23.05,28.72,28.72,0,0,0-6.18-9.19,27.78,27.78,0,0,0-9.33-6.13,32.6,32.6,0,0,0-23.39,0,28.28,28.28,0,0,0-15.6,15.32,31.16,31.16,0,0,0,0,23.05,28.15,28.15,0,0,0,15.6,15.37A30.91,30.91,0,0,0,1611.29,974.23Z"/><path d="M1691.33,973.85h40.73v4.34h-45.54v-66h44.13v4.34h-39.32Zm-.56-31.3h35.73v4.24h-35.73Z"/><path d="M1749.6,978.19v-66h4.05l47,60.06h-2.17V912.19h4.81v66h-4l-47.14-60.06h2.17v60.06Z"/><path d="M1831.15,973.85h40.73v4.34h-45.54v-66h44.13v4.34h-39.32Zm-.56-31.3h35.73v4.24h-35.73Z"/><path d="M1889.42,978.19v-66h23.66a34.91,34.91,0,0,1,14.24,2.64,20.42,20.42,0,0,1,9.14,7.59,21.63,21.63,0,0,1,3.21,12,21.29,21.29,0,0,1-3.21,11.84,20.69,20.69,0,0,1-9.14,7.63,34.4,34.4,0,0,1-14.24,2.69h-21l2.17-2.26v23.85Zm4.81-23.57-2.17-2.26h21q10.65,0,16.17-4.72t5.52-13.2q0-8.57-5.52-13.24t-16.17-4.67h-21l2.17-2.36Zm41,23.57-17.16-24h5.47l17.16,24Z"/><path d="M1985.49,978.66a37.05,37.05,0,0,1-13.77-2.5,32.89,32.89,0,0,1-11-7,31.66,31.66,0,0,1-7.21-10.61,36.17,36.17,0,0,1,0-26.68,31.31,31.31,0,0,1,7.26-10.61,33.83,33.83,0,0,1,11-7,36.93,36.93,0,0,1,13.81-2.5,38.33,38.33,0,0,1,13.3,2.26,27.55,27.55,0,0,1,10.46,6.79l-3,3.21a25.59,25.59,0,0,0-9.48-6,33.8,33.8,0,0,0-11.17-1.79,32,32,0,0,0-11.88,2.17,28.49,28.49,0,0,0-9.52,6.13,27.63,27.63,0,0,0-6.27,9.24,30.9,30.9,0,0,0,0,23,27.53,27.53,0,0,0,6.27,9.24,28.34,28.34,0,0,0,9.52,6.13,31.81,31.81,0,0,0,11.88,2.17,34.08,34.08,0,0,0,11.08-1.79,25.79,25.79,0,0,0,9.57-5.94l2.73,3.68a28.37,28.37,0,0,1-10.61,6.36A39.4,39.4,0,0,1,1985.49,978.66Zm19-8.95V945.47h4.62v24.71Z"/><path d="M2045.74,978.19v-24l1.13,3.11-27.72-45.16h5.28l25.17,41H2047l25.18-41h5l-27.72,45.16,1.14-3.11v24Z"/><path d="M1043.13,549.37H971.76V855.86h224.17v-57.8h-152.8Zm753.07,0h-78.81l-135.73,143v-143h-70.49V855.86h70.49V778l40.7-42.49,98.53,120.31h83.19L1669.53,686.14Zm631.8,0h-69.18l-82.05,135.71-81.7-135.71h-75.75L2238.41,746.7V855.86h71.37V746.53Z"/><polygon points="1234.9 545.25 1234.9 614.65 1472.21 614.58 1472.21 614.65 1472.21 545.99 1472.21 545.25 1234.9 545.25"/><polygon points="1234.9 786.46 1234.9 855.86 1472.21 855.86 1472.21 855.12 1472.21 786.46 1234.9 786.46"/><rect x="1234.9" y="665.86" width="237.31" height="69.4"/><polygon class="cls-1" points="1843.05 545.25 1843.05 614.65 2080.36 614.65 2080.36 545.99 2080.36 545.25 1843.05 545.25"/><polygon class="cls-1" points="1843.05 786.46 1843.05 855.86 2080.36 855.86 2080.36 855.12 2080.36 786.46 1843.05 786.46"/><rect class="cls-1" x="1843.05" y="665.86" width="237.31" height="69.4"/><polygon points="702.74 786.46 661.86 855.86 932.8 855.86 932.8 786.46 719.53 786.46 702.74 786.46"/><polygon points="753.33 700.56 732.89 735.25 932.8 735.25 932.8 665.86 733.56 665.86 753.33 700.56"/><polygon points="664.84 545.25 704.38 614.65 719.53 614.65 932.8 614.65 932.8 545.25 664.84 545.25"/></g></svg>