<svg id="Mit_UT" data-name="Mit UT" xmlns="http://www.w3.org/2000/svg" viewBox="0 0 300 300"><defs><style>.cls-1{fill:#50bb00;}</style></defs><title>LinkedIn Avatar 300_Vektor</title><g id="HOCH_-_Mit_Untertitel" data-name="HOCH - Mit Untertitel"><polygon class="cls-1" points="144.06 95.54 183.15 95.54 177.02 84.93 137.93 84.93 144.06 95.54"/><polygon class="cls-1" points="138.21 132.41 177.02 132.41 183.15 121.8 144.34 121.8 138.21 132.41"/><polygon class="cls-1" points="187.67 103.37 148.57 103.37 151.78 108.92 148.85 113.98 187.67 113.98 190.73 108.67 187.67 103.37"/><polygon points="169.51 145.73 130.53 145.73 109.27 108.92 130.53 72.1 169.53 72.1 173.03 78.27 134.09 78.27 116.39 108.92 134.09 139.56 173.03 139.56 169.51 145.73"/><polygon points="70.55 217.74 66.9 223.68 63.26 217.74 62.45 217.74 66.51 224.36 66.51 227.83 67.25 227.83 67.25 224.36 71.31 217.74 70.55 217.74"/><path d="M80.74,219.12a5,5,0,0,0-1.66-1.07,5.91,5.91,0,0,0-4.17,0,4.81,4.81,0,0,0-1.67,1.08,4.65,4.65,0,0,0-1.1,1.63,5.45,5.45,0,0,0,0,4.05,4.75,4.75,0,0,0,1.1,1.63,5.11,5.11,0,0,0,1.67,1.08,5.91,5.91,0,0,0,4.17,0,5.18,5.18,0,0,0,1.66-1.08,4.9,4.9,0,0,0,1.1-1.62,5.4,5.4,0,0,0,0-4.08A4.9,4.9,0,0,0,80.74,219.12Zm.41,5.42a4.25,4.25,0,0,1-.94,1.41,4.19,4.19,0,0,1-1.43.94,4.75,4.75,0,0,1-1.79.33,4.7,4.7,0,0,1-1.78-.33,4.23,4.23,0,0,1-1.44-.94,4.28,4.28,0,0,1-1-1.41,4.49,4.49,0,0,1,1-4.93,4.54,4.54,0,0,1,1.44-.94,4.7,4.7,0,0,1,1.78-.33,4.75,4.75,0,0,1,1.79.33,4.5,4.5,0,0,1,1.43.94,4.42,4.42,0,0,1,1.28,3.17A4.42,4.42,0,0,1,81.15,224.54Z"/><path d="M92.05,223.52a3.89,3.89,0,0,1-.86,2.79,3.74,3.74,0,0,1-4.89,0,3.93,3.93,0,0,1-.86-2.79v-5.78H84.7v5.81a4.44,4.44,0,0,0,1.08,3.25,4.55,4.55,0,0,0,5.93,0,4.44,4.44,0,0,0,1.08-3.25v-5.81h-.74Z"/><path d="M102,224.12a3.19,3.19,0,0,0,1.4-1.17,3.25,3.25,0,0,0,.49-1.81,3.3,3.3,0,0,0-.49-1.84,3.11,3.11,0,0,0-1.4-1.16,5.29,5.29,0,0,0-2.17-.4H96.22v10.09H97v-3.3h2.88a6,6,0,0,0,1-.08l2.42,3.38h.83l-2.53-3.53A3.41,3.41,0,0,0,102,224.12ZM97,223.88V218.4h2.88a3.77,3.77,0,0,1,2.47.71,2.86,2.86,0,0,1,0,4,3.71,3.71,0,0,1-2.47.72Z"/><polygon points="119.97 226.83 116.83 217.74 116.13 217.74 112.97 226.81 109.9 217.74 109.12 217.74 112.55 227.83 113.33 227.83 116.47 218.77 119.6 227.83 120.38 227.83 123.79 217.74 123.07 217.74 119.97 226.83"/><path d="M128.56,217.74l-4.64,10.09h.8L126,225h5.86l1.29,2.84h.79l-4.64-10.09Zm-2.28,6.63,2.64-5.82,2.65,5.82Z"/><polygon points="141.59 217.74 137.95 223.68 134.3 217.74 133.49 217.74 137.56 224.36 137.56 227.83 138.29 227.83 138.29 224.36 142.36 217.74 141.59 217.74"/><polygon points="146.19 218.4 149.82 218.4 149.82 227.83 150.56 227.83 150.56 218.4 154.19 218.4 154.19 217.74 146.19 217.74 146.19 218.4"/><path d="M163.89,219.12a4.89,4.89,0,0,0-1.66-1.07,5.91,5.91,0,0,0-4.17,0,4.9,4.9,0,0,0-1.67,1.08,4.79,4.79,0,0,0-1.1,1.63,5.45,5.45,0,0,0,0,4.05,4.89,4.89,0,0,0,1.1,1.63,5.22,5.22,0,0,0,1.67,1.08,5.91,5.91,0,0,0,4.17,0,5.07,5.07,0,0,0,1.66-1.08,4.9,4.9,0,0,0,1.1-1.62,5.4,5.4,0,0,0,0-4.08A4.9,4.9,0,0,0,163.89,219.12Zm.41,5.42a4.25,4.25,0,0,1-.94,1.41,4.09,4.09,0,0,1-1.43.94,4.75,4.75,0,0,1-1.79.33,4.7,4.7,0,0,1-1.78-.33,4.23,4.23,0,0,1-1.44-.94,4.28,4.28,0,0,1-.95-1.41,4.73,4.73,0,0,1,0-3.52,4.38,4.38,0,0,1,.95-1.41,4.54,4.54,0,0,1,1.44-.94,4.7,4.7,0,0,1,1.78-.33,4.75,4.75,0,0,1,1.79.33,4.53,4.53,0,0,1,2.37,5.87Z"/><polygon points="172.38 223.03 177.76 223.03 177.76 222.38 172.38 222.38 172.38 218.4 178.39 218.4 178.39 217.74 171.65 217.74 171.65 227.83 178.61 227.83 178.61 227.16 172.38 227.16 172.38 223.03"/><polygon points="188.77 226.5 181.91 217.74 181.29 217.74 181.29 227.83 182.02 227.83 182.02 219.07 188.9 227.83 189.5 227.83 189.5 217.74 188.77 217.74 188.77 226.5"/><polygon points="193.76 223.03 199.13 223.03 199.13 222.38 193.76 222.38 193.76 218.4 199.77 218.4 199.77 217.74 193.02 217.74 193.02 227.83 199.98 227.83 199.98 227.16 193.76 227.16 193.76 223.03"/><path d="M208.46,224.12a3.08,3.08,0,0,0,1.89-3,3.39,3.39,0,0,0-.49-1.84,3.22,3.22,0,0,0-1.4-1.16,5.34,5.34,0,0,0-2.18-.4h-3.62v10.09h.74v-3.3h2.88a5.86,5.86,0,0,0,1-.08l2.42,3.38h.83L208,224.3Zm-5.06-.24V218.4h2.88a3.75,3.75,0,0,1,2.47.71,2.84,2.84,0,0,1,0,4,3.7,3.7,0,0,1-2.47.72Z"/><path d="M214.11,219.61a4.59,4.59,0,0,1,1.45-.94,5.27,5.27,0,0,1,3.53,0,4,4,0,0,1,1.45.92l.46-.49a4.23,4.23,0,0,0-1.6-1,5.85,5.85,0,0,0-2-.34,5.59,5.59,0,0,0-2.12.38,5.18,5.18,0,0,0-1.68,1.07,4.78,4.78,0,0,0-1.11,1.62,5.67,5.67,0,0,0,0,4.08,4.78,4.78,0,0,0,1.11,1.62,5.06,5.06,0,0,0,1.68,1.08,5.72,5.72,0,0,0,2.1.38,6.22,6.22,0,0,0,2-.32,4.43,4.43,0,0,0,1.62-1v-3.77h-.7v3.46a4.18,4.18,0,0,1-1.18.66,5.21,5.21,0,0,1-1.69.27,5,5,0,0,1-1.82-.33,4.27,4.27,0,0,1-1.45-.94,4.16,4.16,0,0,1-1-1.41,4.73,4.73,0,0,1,0-3.52A4.36,4.36,0,0,1,214.11,219.61Z"/><polygon points="231.36 217.74 230.6 217.74 226.95 223.68 223.3 217.74 222.5 217.74 226.56 224.36 226.56 227.83 227.3 227.83 227.3 224.36 231.36 217.74"/><path d="M73.29,162.27H62.38v46.86H96.65v-8.84H73.29Zm115.12,0h-12l-20.76,21.87V162.27H144.84v46.86h10.77v-11.9l6.23-6.5,15.06,18.4h12.72l-20.57-25.95Zm96.59,0H274.42L261.88,183l-12.49-20.75H237.81L256,192.44v16.69h10.91V192.41Z"/><polygon points="102.6 161.64 102.6 172.25 138.88 172.24 138.88 172.25 138.88 161.75 138.88 161.64 102.6 161.64"/><polygon points="102.6 198.52 102.6 209.13 138.88 209.13 138.88 209.01 138.88 198.52 102.6 198.52"/><rect x="102.6" y="180.08" width="36.28" height="10.61"/><polygon class="cls-1" points="195.57 161.64 195.57 172.25 231.85 172.25 231.85 161.75 231.85 161.64 195.57 161.64"/><polygon class="cls-1" points="195.57 198.52 195.57 209.13 231.85 209.13 231.85 209.01 231.85 198.52 195.57 198.52"/><rect class="cls-1" x="195.57" y="180.08" width="36.28" height="10.61"/><polygon points="21.25 198.52 15 209.13 56.42 209.13 56.42 198.52 23.82 198.52 21.25 198.52"/><polygon points="28.98 185.38 25.86 190.69 56.42 190.69 56.42 180.08 25.96 180.08 28.98 185.38"/><polygon points="15.46 161.64 21.5 172.25 23.82 172.25 56.42 172.25 56.42 161.64 15.46 161.64"/></g></svg>